<svg xmlns="http://www.w3.org/2000/svg" viewBox="140 20 1730 1960" fill="none" role="img" aria-labelledby="t d">
  <title id="t">Skiron mark</title>
  <desc id="d">A three-blade wind turbine rotor above a stack of six server units.</desc>
  <style>
    svg { color: #1C1519; --paper: #FFFFFF; }
    @media (prefers-color-scheme: dark) { svg { color: #EEE8EC; --paper: #171115; } }
    .line { fill: none; stroke: currentColor; stroke-width: 5.8; stroke-linejoin: round; }
    .ring { stroke-width: 5.2; }
    .led { fill: currentColor; }
    .blade { fill: var(--paper); stroke: currentColor; stroke-width: 8; stroke-linejoin: miter; stroke-miterlimit: 10; }
  </style>
  <g id="stack" class="stack">
    <ellipse class="line" cx="1000.2" cy="1212.1" rx="188.8" ry="33.5"/>
    <path class="line" d="M811.5 1212.1V1315.1A188.8 35 0 0 0 1189 1315.1V1212.1"/>
    <circle class="line ring" cx="858.9" cy="1288.1" r="11.2"/>
    <circle class="led" cx="1092.1" cy="1294.5" r="5.7"/>
    <circle class="led" cx="1120.5" cy="1292.3" r="5.7"/>
    <circle class="led" cx="1147.8" cy="1288.5" r="5.7"/>
    <path class="line" d="M811.5 1333.1V1436.1A188.8 35 0 0 0 1189 1436.1V1333.1A188.8 33.5 0 0 1 811.5 1333.1Z"/>
    <circle class="line ring" cx="858.9" cy="1409.1" r="11.2"/>
    <circle class="led" cx="1092.1" cy="1415.5" r="5.7"/>
    <circle class="led" cx="1120.5" cy="1413.3" r="5.7"/>
    <circle class="led" cx="1147.8" cy="1409.5" r="5.7"/>
    <path class="line" d="M811.5 1454.1V1557.1A188.8 35 0 0 0 1189 1557.1V1454.1A188.8 33.5 0 0 1 811.5 1454.1Z"/>
    <circle class="line ring" cx="858.9" cy="1530.1" r="11.2"/>
    <circle class="led" cx="1092.1" cy="1536.5" r="5.7"/>
    <circle class="led" cx="1120.5" cy="1534.3" r="5.7"/>
    <circle class="led" cx="1147.8" cy="1530.5" r="5.7"/>
    <path class="line" d="M811.5 1575.1V1678.1A188.8 35 0 0 0 1189 1678.1V1575.1A188.8 33.5 0 0 1 811.5 1575.1Z"/>
    <circle class="line ring" cx="858.9" cy="1651.1" r="11.2"/>
    <circle class="led" cx="1092.1" cy="1657.5" r="5.7"/>
    <circle class="led" cx="1120.5" cy="1655.3" r="5.7"/>
    <circle class="led" cx="1147.8" cy="1651.5" r="5.7"/>
    <path class="line" d="M811.5 1696.1V1799.1A188.8 35 0 0 0 1189 1799.1V1696.1A188.8 33.5 0 0 1 811.5 1696.1Z"/>
    <circle class="line ring" cx="858.9" cy="1772.1" r="11.2"/>
    <circle class="led" cx="1092.1" cy="1778.5" r="5.7"/>
    <circle class="led" cx="1120.5" cy="1776.3" r="5.7"/>
    <circle class="led" cx="1147.8" cy="1772.5" r="5.7"/>
    <path class="line" d="M811.5 1817.1V1920.1A188.8 35 0 0 0 1189 1920.1V1817.1A188.8 33.5 0 0 1 811.5 1817.1Z"/>
    <circle class="line ring" cx="858.9" cy="1893.1" r="11.2"/>
    <circle class="led" cx="1092.1" cy="1899.5" r="5.7"/>
    <circle class="led" cx="1120.5" cy="1897.3" r="5.7"/>
    <circle class="led" cx="1147.8" cy="1893.5" r="5.7"/>
  </g>
  <g transform="translate(1000 1072)">
    <g id="rotor" class="rotor">
      <path class="blade" d="M-25.5 -1011 25.5 -899.6 25.5 -0.1 -25.5 -0.1Z"/>
      <path class="blade" d="M-751.7 380.4 -822.8 480.1 2.8 4.8 -22.7 -39.5Z"/>
      <path class="blade" d="M826.8 435.8 704.6 424.8 -10.2 17.8 15.1 -26.5Z"/>
      <circle class="blade" r="146"/>
    </g>
  </g>
</svg>
